<?xml version="1.0" standalone="no"?><!DOCTYPE svg PUBLIC "-//W3C//DTD SVG 1.1//EN" "http://www.w3.org/Graphics/SVG/1.1/DTD/svg11.dtd"><svg t="1677910174394" class="icon" viewBox="0 0 1024 1024" version="1.1" xmlns="http://www.w3.org/2000/svg" p-id="1085" xmlns:xlink="http://www.w3.org/1999/xlink" width="200" height="200"><path d="M162.3 513.8a350.9 348 0 1 0 701.8 0 350.9 348 0 1 0-701.8 0Z" fill="#E5B363" p-id="1086"></path><path d="M202.6 518.2a312.9 310.3 0 1 0 625.8 0 312.9 310.3 0 1 0-625.8 0Z" fill="#75391F" p-id="1087"></path><path d="M512.3 207.9c8.1 0 16.1-2.3 8.1 5.3-25.5 24.3-70.4 103.7-73.1 156.7C442.4 467.2 598.6 560 596 646.3c-3.3 107.9-95.5 174.8-105.2 181.6-24 4.3-304.7-40.4-287.9-341.4 31.3-253.9 247.9-278.6 309.4-278.6z" fill="#F7E0B0" p-id="1088"></path><path d="M245.4 313.4c-5.1-2.7-11.2-1.2-14.3 3.7-3.4 5.3-6.6 10.6-9.7 16.1-2.7 4.7-1.3 11.5 3.7 14.2 5 2.6 11.4 1.3 14.3-3.7 3.1-5.4 6.3-10.8 9.7-16.1 3-4.7 1.2-11.7-3.7-14.2zM296.9 249.4c-18.5 10.2-36.5 27.6-46.8 46-6.5 11.7 11.5 22.1 18 10.4 8.6-15.4 23.8-30 39.3-38.5 11.8-6.5 1.2-24.3-10.5-17.9zM802.8 660.7c-6.1 11.1-12.6 21.8-19.8 32.2-5.9 8.6-12.1 20.7-20.2 26.8-10.1 7.6 2.3 23 12.3 15.5 8.7-6.5 15-18.7 21.4-27.8 7.9-11.3 15.1-23 21.8-35.2 6.4-11.4-9.2-23-15.5-11.5z" fill="#FCFCFC" p-id="1089"></path><path d="M267.4 486.9a42.8 35.1 0 1 0 85.6 0 42.8 35.1 0 1 0-85.6 0Z" fill="#663C31" p-id="1090"></path><path d="M298.8 469.7c0-0.1-0.1 0 0 0 0.8 0.3 6.1 2.8 8.4 3.9 5.5 2.7 7.7-4 13.8-6 1.4-0.5-0.9 4.6-3.4 8.2v0.1c1.6 0.1 12.6 2.3 12.6 2.3 0.1 2-9.1 5-11 5-1.9 0 4.5 10.1 4.5 10.1-2.3 2.9-10.8-5.4-11.2-5.8-0.5 0.1-3 2.4-6.7 7.6-1 1.4-3.5-6.5-3.8-8.3-0.3-2.2-9.9-3.3-11.7-3.3s5.4-4.1 9.7-5.2c3.9-1-1.1-7.5-1.2-8.6z" fill="#EDE9C8" p-id="1091"></path><path d="M377.7 675.7a42.8 35.1 0 1 0 85.6 0 42.8 35.1 0 1 0-85.6 0Z" fill="#663C31" p-id="1092"></path><path d="M408.3 660.4c0-0.2 0 0 0 0 0.8 0.3 6.1 2.8 8.4 3.9 5.5 2.7 7.7-4 13.8-6 1.4-0.5-0.9 4.6-3.4 8.2v0.1c1.6 0.1 12.6 2.3 12.6 2.3 0.1 2-9.1 5-11 5-1.9 0 4.5 10.1 4.5 10.1-2.3 2.9-10.8-5.4-11.2-5.8-0.5 0.1-3 2.4-6.7 7.6-1 1.4-3.5-6.5-3.8-8.3-0.3-2.2-9.9-3.3-11.7-3.3s5.4-4.1 9.7-5.2c3.9-1-1.1-7.5-1.2-8.6z" fill="#EDE9C8" p-id="1093"></path><path d="M330.4 336.5a38.7 31.7 0 1 0 77.4 0 38.7 31.7 0 1 0-77.4 0Z" fill="#663C31" p-id="1094"></path><path d="M357.8 326.1c-0.1-0.1-0.1 0 0 0 0.7 0.3 5.2 2.5 7.2 3.5 4.8 2.4 6.7-3.5 12-5.3 1.2-0.4-0.8 4.1-2.9 7.3v0.1c1.4 0.1 10.9 2 10.9 2 0.1 1.8-7.9 4.4-9.5 4.4-1.7 0 3.9 8.9 3.9 8.9-2 2.5-9.4-4.8-9.7-5.2-0.5 0.1-2.6 2.2-5.8 6.7-0.8 1.2-3.1-5.8-3.3-7.4-0.2-1.9-8.6-3-10.1-3-1.6 0 4.7-3.6 8.4-4.6 3.3-0.7-1-6.5-1.1-7.4z" fill="#EDE9C8" p-id="1095"></path><path d="M344.5 554.6s35-123.4 37.5-129.8c6.8-17.5 6 2.7 6 2.7l-31.6 130.7-11.9-3.6z" fill="#5CB774" p-id="1096"></path><path d="M346 553.3s61.8-139.3 66.5-146c19.6-28.3-2.5 18.9-2.5 18.9l-53.2 130.9-10.8-3.8z" fill="#5CB774" p-id="1097"></path><path d="M385.9 441.1S356 551.6 349 552.5s1 6.1 1 6.1 17.7-23.3 28.4-59.9c4.9-16.6 11-73.2 11-73.2l-3.5 15.6z" fill="#7ADD96" p-id="1098"></path><path d="M345.5 551S295 637.2 304 644c9.1 6.8 11.6 7.8 11.6 7.8l8.4 4.2 33-99.7-11.5-5.3z" fill="#8FC6AC" p-id="1099"></path><path d="M633.2 361.6m-6.1 0a6.1 6.1 0 1 0 12.2 0 6.1 6.1 0 1 0-12.2 0Z" fill="#542C1E" p-id="1100"></path><path d="M639.3 496.2m-6.1 0a6.1 6.1 0 1 0 12.2 0 6.1 6.1 0 1 0-12.2 0Z" fill="#542C1E" p-id="1101"></path><path d="M742.7 461m-6.1 0a6.1 6.1 0 1 0 12.2 0 6.1 6.1 0 1 0-12.2 0Z" fill="#542C1E" p-id="1102"></path><path d="M694.1 622.3m-6.1 0a6.1 6.1 0 1 0 12.2 0 6.1 6.1 0 1 0-12.2 0Z" fill="#542C1E" p-id="1103"></path><path d="M608.4 317.1m-6.1 0a6.1 6.1 0 1 0 12.2 0 6.1 6.1 0 1 0-12.2 0Z" fill="#542C1E" p-id="1104"></path><path d="M587.3 376.3c-3.2 0-3.2 5 0 5s3.2-5 0-5zM656.2 407.2c-3.2 0-3.2 5 0 5s3.2-5 0-5zM629.7 434.6c-3.2 0-3.2 5 0 5s3.2-5 0-5zM574.9 464.7c-3.2 0-3.2 5 0 5 3.3 0 3.3-5 0-5zM709.2 507.9c-3.2 0-3.2 5 0 5s3.2-5 0-5zM670 520.1c-0.1-0.3-0.3-0.6-0.5-0.8-0.2-0.2-0.5-0.4-0.8-0.5-0.3-0.2-0.6-0.2-1-0.2-0.2 0-0.4 0.1-0.7 0.1-0.4 0.1-0.8 0.3-1.1 0.6-0.1 0.2-0.3 0.3-0.4 0.5-0.2 0.4-0.3 0.8-0.3 1.3v0.9c0 0.3 0.1 0.7 0.2 1 0.1 0.3 0.3 0.6 0.5 0.8 0.2 0.2 0.5 0.4 0.8 0.5 0.3 0.2 0.6 0.2 1 0.2 0.2 0 0.4-0.1 0.7-0.1 0.4-0.1 0.8-0.3 1.1-0.6 0.1-0.2 0.3-0.3 0.4-0.5 0.2-0.4 0.3-0.8 0.3-1.3v-1c0-0.3-0.1-0.6-0.2-0.9zM653.6 593.6c-3.2 0-3.2 5 0 5s3.2-5 0-5zM726 591c-3.2 0-3.2 5 0 5s3.2-5 0-5zM665 673.2c-3.2 0-3.2 5 0 5 3.3 0 3.3-5 0-5zM729.5 395.8c-3.2 0-3.2 5 0 5 3.3 0 3.3-5 0-5zM644.4 729.5c-0.1-0.3-0.3-0.6-0.5-0.8-0.2-0.2-0.5-0.4-0.8-0.5-0.3-0.2-0.6-0.2-1-0.2-0.2 0-0.4 0.1-0.7 0.1-0.4 0.1-0.8 0.3-1.1 0.6-0.1 0.2-0.3 0.3-0.4 0.5-0.2 0.4-0.3 0.8-0.3 1.3v1.8c0 0.3 0.1 0.7 0.2 1 0.1 0.3 0.3 0.6 0.5 0.8 0.2 0.2 0.5 0.4 0.8 0.5 0.3 0.2 0.6 0.2 1 0.2 0.2 0 0.4-0.1 0.7-0.1 0.4-0.1 0.8-0.3 1.1-0.6 0.1-0.2 0.3-0.3 0.4-0.5 0.2-0.4 0.3-0.8 0.3-1.3v-1.8c0-0.4-0.1-0.7-0.2-1zM762.2 547.7c-3.2 0-3.2 5 0 5s3.2-5 0-5zM535.2 313.6c-3.2 0-3.2 5 0 5s3.2-5 0-5zM620 262.4c-3.2 0-3.2 5 0 5s3.2-5 0-5z" fill="#542C1E" p-id="1105"></path><path d="M391.6 482.4m-4.6 0a4.6 4.6 0 1 0 9.2 0 4.6 4.6 0 1 0-9.2 0Z" fill="#FCEED4" p-id="1106"></path><path d="M421.1 545.6m-4.6 0a4.6 4.6 0 1 0 9.2 0 4.6 4.6 0 1 0-9.2 0Z" fill="#FCEED4" p-id="1107"></path><path d="M423.9 300.2m-4.6 0a4.6 4.6 0 1 0 9.2 0 4.6 4.6 0 1 0-9.2 0Z" fill="#FCEED4" p-id="1108"></path><path d="M331.6 598.6m-4.6 0a4.6 4.6 0 1 0 9.2 0 4.6 4.6 0 1 0-9.2 0Z" fill="#FCEED4" p-id="1109"></path><path d="M366 414.3c-3.2 0-3.2 5 0 5s3.2-5 0-5zM422.1 428c-3.2 0-3.2 5 0 5s3.2-5 0-5zM292.7 550.4c-3.2 0-3.2 5 0 5s3.2-5 0-5zM535.6 655c-3.2 0-3.2 5 0 5s3.2-5 0-5zM418.1 734.1c-3.2 0-3.2 5 0 5s3.3-5 0-5zM478.2 504.4c-3.2 0-3.2 5 0 5s3.2-5 0-5zM438.4 256.2c-3.2 0-3.2 5 0 5 3.3 0 3.3-5 0-5zM503.2 599.4c-3.2 0-3.2 5 0 5s3.2-5 0-5zM357.9 546.2c-3.2 0-3.2 5 0 5s3.2-5 0-5zM261.3 390.5c-3.2 0-3.2 5 0 5s3.2-5 0-5zM254.3 481.4c-3.2 0-3.2 5 0 5s3.2-5 0-5z" fill="#FCEED4" p-id="1110"></path></svg>