<?xml version="1.0" standalone="no"?><!DOCTYPE svg PUBLIC "-//W3C//DTD SVG 1.1//EN" "http://www.w3.org/Graphics/SVG/1.1/DTD/svg11.dtd"><svg t="1677811116313" class="icon" viewBox="0 0 1024 1024" version="1.1" xmlns="http://www.w3.org/2000/svg" p-id="3663" xmlns:xlink="http://www.w3.org/1999/xlink" width="200" height="200"><path d="M448.036 800.18c-1.39 0-2.796-0.124-4.204-0.406-11.562-2.312-19.046-13.532-16.75-25.094l21.328-106.872c2.312-11.562 13.546-19.032 25.11-16.75 11.546 2.312 19.046 13.562 16.734 25.094l-21.328 106.872a21.332 21.332 0 0 1-20.89 17.156z" fill="#967ADC" p-id="3664"></path><path d="M533.314 800.18c-9.968 0-18.876-7-20.906-17.156l-21.328-106.872c-2.296-11.532 5.188-22.782 16.75-25.094 11.546-2.312 22.78 5.188 25.092 16.75l21.326 106.872c2.312 11.562-5.186 22.782-16.732 25.094-1.42 0.28-2.826 0.406-4.202 0.406z" fill="#967ADC" p-id="3665"></path><path d="M448.004 224.006c0 11.782-9.546 21.312-21.328 21.312s-21.344-9.53-21.344-21.312c0-11.78 9.562-21.342 21.344-21.342 11.782 0 21.328 9.562 21.328 21.342z" fill="#A0D468" p-id="3666"></path><path d="M192.01 53.324c0 11.782-9.546 21.342-21.328 21.342-11.78 0-21.342-9.562-21.342-21.342s9.562-21.312 21.342-21.312c11.78-0.002 21.328 9.53 21.328 21.312z" fill="#ED5564" p-id="3667"></path><path d="M640 949.304c0 11.782-9.532 21.344-21.312 21.344s-21.344-9.562-21.344-21.344 9.562-21.312 21.344-21.312S640 937.524 640 949.304z" fill="#AC92EB" p-id="3668"></path><path d="M1023.99 778.868a21.298 21.298 0 0 1-21.31 21.312c-11.782 0-21.344-9.532-21.344-21.312s9.562-21.34 21.344-21.34c11.778 0 21.31 9.558 21.31 21.34z" fill="#FFCE54" p-id="3669"></path><path d="M213.336 906.648v-21.344c0-11.782-9.546-21.312-21.328-21.312s-21.328 9.532-21.328 21.312v21.344c-11.78 0-21.342 9.562-21.342 21.344s9.562 21.312 21.342 21.312v21.344c0 11.782 9.546 21.34 21.328 21.34s21.328-9.558 21.328-21.34v-21.344c11.782 0 21.344-9.532 21.344-21.312s-9.562-21.344-21.344-21.344z" fill="#48CFAD" p-id="3670"></path><path d="M725.34 96.01V74.666c0-11.78-9.562-21.342-21.344-21.342-11.78 0-21.31 9.562-21.31 21.342v21.344c-11.782 0-21.342 9.532-21.342 21.312s9.56 21.344 21.342 21.344v21.342a21.3 21.3 0 0 0 21.31 21.312c11.782 0 21.344-9.532 21.344-21.312V138.666c11.782 0 21.344-9.562 21.344-21.344s-9.562-21.312-21.344-21.312z" fill="#FC6E51" p-id="3671"></path><path d="M295.444 778.868c-45.078 0-85.764-18.214-117.668-52.622-33.062-35.688-54.952-87.968-63.296-151.246-3.718-28.156 13.766-50.094 33.374-65.406-33.89-12.094-56.044-24.812-54.982-46.592 0.812-16.75 1.422-103.686-67.124-168.278C13.092 282.818-1.61 263.474 0.156 239.038c2.078-28.718 25.328-45.78 27.984-47.624 0.876-0.624 1.796-1.156 2.766-1.656 2.454-1.218 16.032-7.312 41.078-7.312 51.422 0 106.28 25.376 143.232 46.656 75.358 43.406 159.012 115.84 248.636 215.278a21.292 21.292 0 0 1 5.484 14.28v142.026c0 1.218-0.094 2.438-0.312 3.656-0.266 1.532-6.796 38.156-27.172 77.218-28.202 54.032-69.388 86.902-119.124 95.058-9.112 1.468-18.284 2.25-27.284 2.25zM685.904 778.868c-9 0-18.188-0.782-27.28-2.25-49.718-8.156-90.906-41.028-119.124-95.058-20.39-39.062-26.922-75.688-27.188-77.218a22.118 22.118 0 0 1-0.312-3.656V458.66c0-5.282 1.954-10.376 5.484-14.28 89.638-99.436 173.292-171.872 248.634-215.278 36.968-21.28 91.81-46.656 143.248-46.656 25.032 0 38.624 6.094 41.094 7.312 0.938 0.5 1.876 1.032 2.75 1.656 2.656 1.844 25.904 18.906 27.966 47.624 1.782 24.436-12.938 43.78-25.56 55.686-68.562 64.624-67.968 151.528-67.124 168.278 1.032 21.78-21.094 34.5-54.998 46.592 19.594 15.312 37.092 37.25 33.374 65.406-8.344 63.278-30.248 115.59-63.31 151.246-31.874 34.406-72.594 52.622-117.654 52.622z" fill="#EC87C0" p-id="3672"></path><path d="M618.656 565.344c-3.218 0-6.468-0.75-9.532-2.282l-85.326-42.656c-10.546-5.282-14.812-18.092-9.546-28.624s18.078-14.812 28.624-9.532l85.342 42.656c10.532 5.282 14.812 18.094 9.532 28.624-3.718 7.47-11.282 11.814-19.094 11.814zM362.694 565.344c-7.828 0-15.36-4.344-19.094-11.812-5.282-10.532-1-23.344 9.532-28.624l85.326-42.656c10.546-5.282 23.36-1 28.624 9.532s1 23.342-9.532 28.624l-85.342 42.656a21.262 21.262 0 0 1-9.514 2.28z" fill="#EAC6BB" p-id="3673"></path><path d="M490.674 437.316c-35.296 0-63.998 28.718-63.998 63.998v127.996c0 35.312 28.702 64 63.998 64 35.28 0 64.012-28.688 64.012-64v-127.996c0.002-35.28-28.73-63.998-64.012-63.998z" fill="#AC92EB" p-id="3674"></path><path d="M490.674 350.786c-35.718 0-64.78 29.032-64.78 64.75s29.062 64.78 64.78 64.78c35.702 0 64.762-29.062 64.762-64.78s-29.06-64.75-64.762-64.75z" fill="#EAC6BB" p-id="3675"></path><path d="M426.676 586.656h128.01v42.652h-128.01z" fill="#967ADC" p-id="3676"></path></svg>